<mxfile host="Electron" modified="2024-09-23T17:56:02.194Z" agent="Mozilla/5.0 (Windows NT 10.0; Win64; x64) AppleWebKit/537.36 (KHTML, like Gecko) draw.io/24.2.5 Chrome/120.0.6099.109 Electron/28.1.0 Safari/537.36" etag="0ZM4UUY7VAkP1r6X-W4N" version="24.2.5" type="device">
  <diagram name="Page-1" id="c4acf3e9-155e-7222-9cf6-157b1a14988f">
    <mxGraphModel dx="2731" dy="1756" grid="1" gridSize="10" guides="1" tooltips="1" connect="1" arrows="1" fold="1" page="1" pageScale="1" pageWidth="1169" pageHeight="827" background="none" math="0" shadow="0">
      <root>
        <mxCell id="0" />
        <mxCell id="1" parent="0" />
        <mxCell id="RJdc7BDFOfBHNQxDKPzy-36" value="&lt;p style=&quot;margin:0px;margin-top:4px;text-align:center;&quot;&gt;&lt;i&gt;&amp;lt;&amp;lt;Interface&amp;gt;&amp;gt;&lt;/i&gt;&lt;br&gt;&lt;b&gt;SelectedFilePathAndContextFinder&lt;/b&gt;&lt;br&gt;&lt;/p&gt;&lt;hr size=&quot;1&quot; style=&quot;border-style:solid;&quot;&gt;&lt;p style=&quot;margin:0px;margin-left:4px;&quot;&gt;~ Vor&amp;nbsp;SelectedFilePathAndContextFinder?&lt;/p&gt;&lt;hr size=&quot;1&quot; style=&quot;border-style:solid;&quot;&gt;&lt;p style=&quot;margin:0px;margin-left:4px;&quot;&gt;~&amp;nbsp;&lt;span style=&quot;background-color: initial;&quot;&gt;getRessourceOfSelectedFile(): IRessource&lt;/span&gt;&lt;/p&gt;&lt;p style=&quot;margin:0px;margin-left:4px;&quot;&gt;&lt;span style=&quot;background-color: initial;&quot;&gt;~&amp;nbsp;&lt;/span&gt;&lt;span style=&quot;background-color: initial;&quot;&gt;getProjectOfSelectedFileByRessource(): IProject&lt;/span&gt;&lt;/p&gt;&lt;p style=&quot;margin:0px;margin-left:4px;&quot;&gt;&lt;span style=&quot;background-color: initial;&quot;&gt;~&amp;nbsp;&lt;/span&gt;&lt;span style=&quot;background-color: initial;&quot;&gt;getProjectPathOfSelectedFileByRessource(): Path&lt;/span&gt;&lt;/p&gt;&lt;p style=&quot;margin:0px;margin-left:4px;&quot;&gt;&lt;span style=&quot;background-color: initial;&quot;&gt;~&amp;nbsp;&lt;/span&gt;&lt;span style=&quot;background-color: initial;&quot;&gt;getSelectedFile(): IFile&lt;/span&gt;&lt;/p&gt;&lt;p style=&quot;margin:0px;margin-left:4px;&quot;&gt;&lt;span style=&quot;background-color: initial;&quot;&gt;~&amp;nbsp;&lt;/span&gt;&lt;span style=&quot;background-color: initial;&quot;&gt;getPathOfSelectedFile(): Path&lt;/span&gt;&lt;/p&gt;" style="verticalAlign=top;align=left;overflow=fill;html=1;whiteSpace=wrap;" parent="1" vertex="1">
          <mxGeometry x="140" y="10" width="300" height="170" as="geometry" />
        </mxCell>
        <mxCell id="RJdc7BDFOfBHNQxDKPzy-37" value="CallArduinoCLIUtilizerConfigGenerationAction" style="swimlane;fontStyle=1;align=center;verticalAlign=top;childLayout=stackLayout;horizontal=1;startSize=26;horizontalStack=0;resizeParent=1;resizeParentMax=0;resizeLast=0;collapsible=1;marginBottom=0;whiteSpace=wrap;html=1;" parent="1" vertex="1">
          <mxGeometry x="-480" y="-340" width="540" height="140" as="geometry" />
        </mxCell>
        <mxCell id="RJdc7BDFOfBHNQxDKPzy-38" value="- shell: Shell" style="text;strokeColor=none;fillColor=none;align=left;verticalAlign=top;spacingLeft=4;spacingRight=4;overflow=hidden;rotatable=0;points=[[0,0.5],[1,0.5]];portConstraint=eastwest;whiteSpace=wrap;html=1;" parent="RJdc7BDFOfBHNQxDKPzy-37" vertex="1">
          <mxGeometry y="26" width="540" height="26" as="geometry" />
        </mxCell>
        <mxCell id="RJdc7BDFOfBHNQxDKPzy-39" value="" style="line;strokeWidth=1;fillColor=none;align=left;verticalAlign=middle;spacingTop=-1;spacingLeft=3;spacingRight=3;rotatable=0;labelPosition=right;points=[];portConstraint=eastwest;strokeColor=inherit;" parent="RJdc7BDFOfBHNQxDKPzy-37" vertex="1">
          <mxGeometry y="52" width="540" height="8" as="geometry" />
        </mxCell>
        <mxCell id="RJdc7BDFOfBHNQxDKPzy-40" value="+ CallArduinoCLIUtilizerConfigGenerationAction(): CallArduinoCLIUtilizerConfigGenerationAction&lt;div&gt;+&amp;nbsp;setActivePart(IAction action, IWorkbenchPart targetPart): void&lt;/div&gt;&lt;div&gt;+&amp;nbsp;run(IAction action): void&lt;/div&gt;&lt;div&gt;+&amp;nbsp;selectionChanged(IAction action, ISelection selection): void&lt;/div&gt;" style="text;strokeColor=none;fillColor=none;align=left;verticalAlign=top;spacingLeft=4;spacingRight=4;overflow=hidden;rotatable=0;points=[[0,0.5],[1,0.5]];portConstraint=eastwest;whiteSpace=wrap;html=1;" parent="RJdc7BDFOfBHNQxDKPzy-37" vertex="1">
          <mxGeometry y="60" width="540" height="80" as="geometry" />
        </mxCell>
        <mxCell id="RJdc7BDFOfBHNQxDKPzy-41" value="CallListAllConnectedArduinoBoardsAction" style="swimlane;fontStyle=1;align=center;verticalAlign=top;childLayout=stackLayout;horizontal=1;startSize=26;horizontalStack=0;resizeParent=1;resizeParentMax=0;resizeLast=0;collapsible=1;marginBottom=0;whiteSpace=wrap;html=1;" parent="1" vertex="1">
          <mxGeometry x="-480" y="-160" width="540" height="140" as="geometry" />
        </mxCell>
        <mxCell id="RJdc7BDFOfBHNQxDKPzy-42" value="- shell: Shell" style="text;strokeColor=none;fillColor=none;align=left;verticalAlign=top;spacingLeft=4;spacingRight=4;overflow=hidden;rotatable=0;points=[[0,0.5],[1,0.5]];portConstraint=eastwest;whiteSpace=wrap;html=1;" parent="RJdc7BDFOfBHNQxDKPzy-41" vertex="1">
          <mxGeometry y="26" width="540" height="26" as="geometry" />
        </mxCell>
        <mxCell id="RJdc7BDFOfBHNQxDKPzy-43" value="" style="line;strokeWidth=1;fillColor=none;align=left;verticalAlign=middle;spacingTop=-1;spacingLeft=3;spacingRight=3;rotatable=0;labelPosition=right;points=[];portConstraint=eastwest;strokeColor=inherit;" parent="RJdc7BDFOfBHNQxDKPzy-41" vertex="1">
          <mxGeometry y="52" width="540" height="8" as="geometry" />
        </mxCell>
        <mxCell id="RJdc7BDFOfBHNQxDKPzy-44" value="+ CallListAllConnectedArduinoBoardsAction(): CallListAllConnectedArduinoBoardsAction&lt;div&gt;+&amp;nbsp;setActivePart(IAction action, IWorkbenchPart targetPart): void&lt;/div&gt;&lt;div&gt;+&amp;nbsp;run(IAction action): void&lt;/div&gt;&lt;div&gt;+&amp;nbsp;selectionChanged(IAction action, ISelection selection): void&lt;/div&gt;" style="text;strokeColor=none;fillColor=none;align=left;verticalAlign=top;spacingLeft=4;spacingRight=4;overflow=hidden;rotatable=0;points=[[0,0.5],[1,0.5]];portConstraint=eastwest;whiteSpace=wrap;html=1;" parent="RJdc7BDFOfBHNQxDKPzy-41" vertex="1">
          <mxGeometry y="60" width="540" height="80" as="geometry" />
        </mxCell>
        <mxCell id="RJdc7BDFOfBHNQxDKPzy-45" value="GenerateAllPipelineStepExamplesAction" style="swimlane;fontStyle=1;align=center;verticalAlign=top;childLayout=stackLayout;horizontal=1;startSize=26;horizontalStack=0;resizeParent=1;resizeParentMax=0;resizeLast=0;collapsible=1;marginBottom=0;whiteSpace=wrap;html=1;" parent="1" vertex="1">
          <mxGeometry x="-480" y="200" width="540" height="140" as="geometry" />
        </mxCell>
        <mxCell id="RJdc7BDFOfBHNQxDKPzy-46" value="- shell: Shell" style="text;strokeColor=none;fillColor=none;align=left;verticalAlign=top;spacingLeft=4;spacingRight=4;overflow=hidden;rotatable=0;points=[[0,0.5],[1,0.5]];portConstraint=eastwest;whiteSpace=wrap;html=1;" parent="RJdc7BDFOfBHNQxDKPzy-45" vertex="1">
          <mxGeometry y="26" width="540" height="26" as="geometry" />
        </mxCell>
        <mxCell id="RJdc7BDFOfBHNQxDKPzy-47" value="" style="line;strokeWidth=1;fillColor=none;align=left;verticalAlign=middle;spacingTop=-1;spacingLeft=3;spacingRight=3;rotatable=0;labelPosition=right;points=[];portConstraint=eastwest;strokeColor=inherit;" parent="RJdc7BDFOfBHNQxDKPzy-45" vertex="1">
          <mxGeometry y="52" width="540" height="8" as="geometry" />
        </mxCell>
        <mxCell id="RJdc7BDFOfBHNQxDKPzy-48" value="+ GenerateAllPipelineStepExamplesAction(): GenerateAllPipelineStepExamplesAction&lt;div&gt;+&amp;nbsp;setActivePart(IAction action, IWorkbenchPart targetPart): void&lt;/div&gt;&lt;div&gt;+&amp;nbsp;run(IAction action): void&lt;/div&gt;&lt;div&gt;+&amp;nbsp;selectionChanged(IAction action, ISelection selection): void&lt;/div&gt;" style="text;strokeColor=none;fillColor=none;align=left;verticalAlign=top;spacingLeft=4;spacingRight=4;overflow=hidden;rotatable=0;points=[[0,0.5],[1,0.5]];portConstraint=eastwest;whiteSpace=wrap;html=1;" parent="RJdc7BDFOfBHNQxDKPzy-45" vertex="1">
          <mxGeometry y="60" width="540" height="80" as="geometry" />
        </mxCell>
        <mxCell id="RJdc7BDFOfBHNQxDKPzy-49" value="GenerateDefaultOrExamplePipelineSettingsAction" style="swimlane;fontStyle=1;align=center;verticalAlign=top;childLayout=stackLayout;horizontal=1;startSize=26;horizontalStack=0;resizeParent=1;resizeParentMax=0;resizeLast=0;collapsible=1;marginBottom=0;whiteSpace=wrap;html=1;" parent="1" vertex="1">
          <mxGeometry x="-100" y="380" width="580" height="140" as="geometry" />
        </mxCell>
        <mxCell id="RJdc7BDFOfBHNQxDKPzy-50" value="- shell: Shell" style="text;strokeColor=none;fillColor=none;align=left;verticalAlign=top;spacingLeft=4;spacingRight=4;overflow=hidden;rotatable=0;points=[[0,0.5],[1,0.5]];portConstraint=eastwest;whiteSpace=wrap;html=1;" parent="RJdc7BDFOfBHNQxDKPzy-49" vertex="1">
          <mxGeometry y="26" width="580" height="26" as="geometry" />
        </mxCell>
        <mxCell id="RJdc7BDFOfBHNQxDKPzy-51" value="" style="line;strokeWidth=1;fillColor=none;align=left;verticalAlign=middle;spacingTop=-1;spacingLeft=3;spacingRight=3;rotatable=0;labelPosition=right;points=[];portConstraint=eastwest;strokeColor=inherit;" parent="RJdc7BDFOfBHNQxDKPzy-49" vertex="1">
          <mxGeometry y="52" width="580" height="8" as="geometry" />
        </mxCell>
        <mxCell id="RJdc7BDFOfBHNQxDKPzy-52" value="+ GenerateDefaultOrExamplePipelineSettingsAction(): GenerateDefaultOrExamplePipelineSettingsAction&lt;div&gt;+&amp;nbsp;setActivePart(IAction action, IWorkbenchPart targetPart): void&lt;/div&gt;&lt;div&gt;+&amp;nbsp;run(IAction action): void&lt;/div&gt;&lt;div&gt;+&amp;nbsp;selectionChanged(IAction action, ISelection selection): void&lt;/div&gt;" style="text;strokeColor=none;fillColor=none;align=left;verticalAlign=top;spacingLeft=4;spacingRight=4;overflow=hidden;rotatable=0;points=[[0,0.5],[1,0.5]];portConstraint=eastwest;whiteSpace=wrap;html=1;" parent="RJdc7BDFOfBHNQxDKPzy-49" vertex="1">
          <mxGeometry y="60" width="580" height="80" as="geometry" />
        </mxCell>
        <mxCell id="RJdc7BDFOfBHNQxDKPzy-53" value="RunPipelineAction" style="swimlane;fontStyle=1;align=center;verticalAlign=top;childLayout=stackLayout;horizontal=1;startSize=26;horizontalStack=0;resizeParent=1;resizeParentMax=0;resizeLast=0;collapsible=1;marginBottom=0;whiteSpace=wrap;html=1;" parent="1" vertex="1">
          <mxGeometry x="-480" y="-520" width="540" height="140" as="geometry" />
        </mxCell>
        <mxCell id="RJdc7BDFOfBHNQxDKPzy-54" value="- shell: Shell" style="text;strokeColor=none;fillColor=none;align=left;verticalAlign=top;spacingLeft=4;spacingRight=4;overflow=hidden;rotatable=0;points=[[0,0.5],[1,0.5]];portConstraint=eastwest;whiteSpace=wrap;html=1;" parent="RJdc7BDFOfBHNQxDKPzy-53" vertex="1">
          <mxGeometry y="26" width="540" height="26" as="geometry" />
        </mxCell>
        <mxCell id="RJdc7BDFOfBHNQxDKPzy-55" value="" style="line;strokeWidth=1;fillColor=none;align=left;verticalAlign=middle;spacingTop=-1;spacingLeft=3;spacingRight=3;rotatable=0;labelPosition=right;points=[];portConstraint=eastwest;strokeColor=inherit;" parent="RJdc7BDFOfBHNQxDKPzy-53" vertex="1">
          <mxGeometry y="52" width="540" height="8" as="geometry" />
        </mxCell>
        <mxCell id="RJdc7BDFOfBHNQxDKPzy-56" value="+ RunPipelineAction(): RunPipelineAction&lt;div&gt;+&amp;nbsp;setActivePart(IAction action, IWorkbenchPart targetPart): void&lt;/div&gt;&lt;div&gt;+&amp;nbsp;run(IAction action): void&lt;/div&gt;&lt;div&gt;+&amp;nbsp;selectionChanged(IAction action, ISelection selection): void&lt;/div&gt;" style="text;strokeColor=none;fillColor=none;align=left;verticalAlign=top;spacingLeft=4;spacingRight=4;overflow=hidden;rotatable=0;points=[[0,0.5],[1,0.5]];portConstraint=eastwest;whiteSpace=wrap;html=1;" parent="RJdc7BDFOfBHNQxDKPzy-53" vertex="1">
          <mxGeometry y="60" width="540" height="80" as="geometry" />
        </mxCell>
        <mxCell id="RJdc7BDFOfBHNQxDKPzy-58" value="implements" style="endArrow=block;dashed=1;endFill=0;endSize=12;html=1;rounded=0;verticalAlign=middle;exitX=0.999;exitY=1;exitDx=0;exitDy=0;exitPerimeter=0;" parent="1" source="RJdc7BDFOfBHNQxDKPzy-56" target="RJdc7BDFOfBHNQxDKPzy-36" edge="1">
          <mxGeometry x="0.2308" y="-31" width="160" relative="1" as="geometry">
            <mxPoint x="760" as="sourcePoint" />
            <mxPoint x="790" y="-30" as="targetPoint" />
            <mxPoint x="-1" as="offset" />
          </mxGeometry>
        </mxCell>
        <mxCell id="RJdc7BDFOfBHNQxDKPzy-59" value="implements" style="endArrow=block;dashed=1;endFill=0;endSize=12;html=1;rounded=0;verticalAlign=middle;exitX=1.001;exitY=1;exitDx=0;exitDy=0;exitPerimeter=0;" parent="1" source="RJdc7BDFOfBHNQxDKPzy-40" target="RJdc7BDFOfBHNQxDKPzy-36" edge="1">
          <mxGeometry x="0.0307" y="-19" width="160" relative="1" as="geometry">
            <mxPoint x="25" y="-370" as="sourcePoint" />
            <mxPoint x="260" y="-294" as="targetPoint" />
            <mxPoint as="offset" />
          </mxGeometry>
        </mxCell>
        <mxCell id="RJdc7BDFOfBHNQxDKPzy-60" value="implements" style="endArrow=block;dashed=1;endFill=0;endSize=12;html=1;rounded=0;verticalAlign=middle;exitX=0.998;exitY=1.002;exitDx=0;exitDy=0;exitPerimeter=0;" parent="1" source="RJdc7BDFOfBHNQxDKPzy-44" target="RJdc7BDFOfBHNQxDKPzy-36" edge="1">
          <mxGeometry x="-0.0866" y="19" width="160" relative="1" as="geometry">
            <mxPoint x="50" y="-150" as="sourcePoint" />
            <mxPoint x="270" y="-284" as="targetPoint" />
            <mxPoint as="offset" />
          </mxGeometry>
        </mxCell>
        <mxCell id="RJdc7BDFOfBHNQxDKPzy-61" value="implements" style="endArrow=block;dashed=1;endFill=0;endSize=12;html=1;rounded=0;verticalAlign=middle;exitX=1;exitY=0;exitDx=0;exitDy=0;" parent="1" source="RJdc7BDFOfBHNQxDKPzy-45" target="RJdc7BDFOfBHNQxDKPzy-36" edge="1">
          <mxGeometry x="-0.06" y="-30" width="160" relative="1" as="geometry">
            <mxPoint x="45" y="-350" as="sourcePoint" />
            <mxPoint x="280" y="-274" as="targetPoint" />
            <mxPoint as="offset" />
          </mxGeometry>
        </mxCell>
        <mxCell id="RJdc7BDFOfBHNQxDKPzy-62" value="implements" style="endArrow=block;dashed=1;endFill=0;endSize=12;html=1;rounded=0;verticalAlign=middle;" parent="1" source="RJdc7BDFOfBHNQxDKPzy-49" target="RJdc7BDFOfBHNQxDKPzy-36" edge="1">
          <mxGeometry x="0.2308" y="-31" width="160" relative="1" as="geometry">
            <mxPoint x="55" y="-340" as="sourcePoint" />
            <mxPoint x="290" y="-264" as="targetPoint" />
            <mxPoint x="-1" as="offset" />
          </mxGeometry>
        </mxCell>
        <mxCell id="RJdc7BDFOfBHNQxDKPzy-63" value="GenerateArduinoCLIUtilizerConfigAction" style="swimlane;fontStyle=1;align=center;verticalAlign=top;childLayout=stackLayout;horizontal=1;startSize=26;horizontalStack=0;resizeParent=1;resizeParentMax=0;resizeLast=0;collapsible=1;marginBottom=0;whiteSpace=wrap;html=1;" parent="1" vertex="1">
          <mxGeometry x="-1040" y="-340" width="480" height="130" as="geometry" />
        </mxCell>
        <mxCell id="RJdc7BDFOfBHNQxDKPzy-64" value="- shell: Shell" style="text;strokeColor=none;fillColor=none;align=left;verticalAlign=top;spacingLeft=4;spacingRight=4;overflow=hidden;rotatable=0;points=[[0,0.5],[1,0.5]];portConstraint=eastwest;whiteSpace=wrap;html=1;" parent="RJdc7BDFOfBHNQxDKPzy-63" vertex="1">
          <mxGeometry y="26" width="480" height="26" as="geometry" />
        </mxCell>
        <mxCell id="RJdc7BDFOfBHNQxDKPzy-65" value="" style="line;strokeWidth=1;fillColor=none;align=left;verticalAlign=middle;spacingTop=-1;spacingLeft=3;spacingRight=3;rotatable=0;labelPosition=right;points=[];portConstraint=eastwest;strokeColor=inherit;" parent="RJdc7BDFOfBHNQxDKPzy-63" vertex="1">
          <mxGeometry y="52" width="480" height="8" as="geometry" />
        </mxCell>
        <mxCell id="RJdc7BDFOfBHNQxDKPzy-66" value="+ GenerateArduinoCLIUtilizerConfigAction():&amp;nbsp;GenerateArduinoCLIUtilizerConfigAction&lt;div&gt;+&amp;nbsp;setActivePart(action:&amp;nbsp;&lt;span style=&quot;background-color: initial;&quot;&gt;IAction&lt;/span&gt;&lt;span style=&quot;background-color: initial;&quot;&gt;, targetPart:&amp;nbsp;&lt;/span&gt;&lt;span style=&quot;background-color: initial;&quot;&gt;IWorkbenchPart&lt;/span&gt;&lt;span style=&quot;background-color: initial;&quot;&gt;): void&lt;/span&gt;&lt;/div&gt;&lt;div&gt;+ run(action:&amp;nbsp;&lt;span style=&quot;background-color: initial;&quot;&gt;IAction&lt;/span&gt;&lt;span style=&quot;background-color: initial;&quot;&gt;): void&lt;/span&gt;&lt;/div&gt;&lt;div&gt;+&amp;nbsp;selectionChanged(action:&amp;nbsp;&lt;span style=&quot;background-color: initial;&quot;&gt;IAction&lt;/span&gt;&lt;span style=&quot;background-color: initial;&quot;&gt;, selection:&amp;nbsp;&lt;/span&gt;&lt;span style=&quot;background-color: initial;&quot;&gt;ISelection&lt;/span&gt;&lt;span style=&quot;background-color: initial;&quot;&gt;): void&lt;/span&gt;&lt;/div&gt;" style="text;strokeColor=none;fillColor=none;align=left;verticalAlign=top;spacingLeft=4;spacingRight=4;overflow=hidden;rotatable=0;points=[[0,0.5],[1,0.5]];portConstraint=eastwest;whiteSpace=wrap;html=1;" parent="RJdc7BDFOfBHNQxDKPzy-63" vertex="1">
          <mxGeometry y="60" width="480" height="70" as="geometry" />
        </mxCell>
        <mxCell id="RJdc7BDFOfBHNQxDKPzy-67" value="ListAllConnectedArduinoBoardsAction" style="swimlane;fontStyle=1;align=center;verticalAlign=top;childLayout=stackLayout;horizontal=1;startSize=26;horizontalStack=0;resizeParent=1;resizeParentMax=0;resizeLast=0;collapsible=1;marginBottom=0;whiteSpace=wrap;html=1;" parent="1" vertex="1">
          <mxGeometry x="-1010" y="-160" width="450" height="130" as="geometry" />
        </mxCell>
        <mxCell id="RJdc7BDFOfBHNQxDKPzy-68" value="- shell: Shell" style="text;strokeColor=none;fillColor=none;align=left;verticalAlign=top;spacingLeft=4;spacingRight=4;overflow=hidden;rotatable=0;points=[[0,0.5],[1,0.5]];portConstraint=eastwest;whiteSpace=wrap;html=1;" parent="RJdc7BDFOfBHNQxDKPzy-67" vertex="1">
          <mxGeometry y="26" width="450" height="26" as="geometry" />
        </mxCell>
        <mxCell id="RJdc7BDFOfBHNQxDKPzy-69" value="" style="line;strokeWidth=1;fillColor=none;align=left;verticalAlign=middle;spacingTop=-1;spacingLeft=3;spacingRight=3;rotatable=0;labelPosition=right;points=[];portConstraint=eastwest;strokeColor=inherit;" parent="RJdc7BDFOfBHNQxDKPzy-67" vertex="1">
          <mxGeometry y="52" width="450" height="8" as="geometry" />
        </mxCell>
        <mxCell id="RJdc7BDFOfBHNQxDKPzy-70" value="+ ListAllConnectedArduinoBoardsAction():&amp;nbsp;ListAllConnectedArduinoBoardsAction&lt;div&gt;&lt;div&gt;+&amp;nbsp;setActivePart(action:&amp;nbsp;&lt;span style=&quot;background-color: initial;&quot;&gt;IAction&lt;/span&gt;&lt;span style=&quot;background-color: initial;&quot;&gt;, targetPart:&amp;nbsp;&lt;/span&gt;&lt;span style=&quot;background-color: initial;&quot;&gt;IWorkbenchPart&lt;/span&gt;&lt;span style=&quot;background-color: initial;&quot;&gt;): void&lt;/span&gt;&lt;/div&gt;&lt;div&gt;+ run(action:&amp;nbsp;&lt;span style=&quot;background-color: initial;&quot;&gt;IAction&lt;/span&gt;&lt;span style=&quot;background-color: initial;&quot;&gt;): void&lt;/span&gt;&lt;/div&gt;&lt;div&gt;+&amp;nbsp;selectionChanged(action:&amp;nbsp;&lt;span style=&quot;background-color: initial;&quot;&gt;IAction&lt;/span&gt;&lt;span style=&quot;background-color: initial;&quot;&gt;, selection:&amp;nbsp;&lt;/span&gt;&lt;span style=&quot;background-color: initial;&quot;&gt;ISelection&lt;/span&gt;&lt;span style=&quot;background-color: initial;&quot;&gt;): void&lt;/span&gt;&lt;/div&gt;&lt;/div&gt;" style="text;strokeColor=none;fillColor=none;align=left;verticalAlign=top;spacingLeft=4;spacingRight=4;overflow=hidden;rotatable=0;points=[[0,0.5],[1,0.5]];portConstraint=eastwest;whiteSpace=wrap;html=1;" parent="RJdc7BDFOfBHNQxDKPzy-67" vertex="1">
          <mxGeometry y="60" width="450" height="70" as="geometry" />
        </mxCell>
        <mxCell id="RJdc7BDFOfBHNQxDKPzy-71" value="Use" style="endArrow=open;endSize=12;dashed=1;html=1;rounded=0;" parent="1" source="RJdc7BDFOfBHNQxDKPzy-37" target="RJdc7BDFOfBHNQxDKPzy-63" edge="1">
          <mxGeometry width="160" relative="1" as="geometry">
            <mxPoint x="-450" y="-220" as="sourcePoint" />
            <mxPoint x="-290" y="-220" as="targetPoint" />
          </mxGeometry>
        </mxCell>
        <mxCell id="RJdc7BDFOfBHNQxDKPzy-72" value="Use" style="endArrow=open;endSize=12;dashed=1;html=1;rounded=0;" parent="1" source="RJdc7BDFOfBHNQxDKPzy-41" target="RJdc7BDFOfBHNQxDKPzy-67" edge="1">
          <mxGeometry width="160" relative="1" as="geometry">
            <mxPoint x="-470" y="-262" as="sourcePoint" />
            <mxPoint x="-550" y="-263" as="targetPoint" />
          </mxGeometry>
        </mxCell>
        <mxCell id="RJdc7BDFOfBHNQxDKPzy-73" value="PipelineSettingsGenerator" style="swimlane;fontStyle=1;align=center;verticalAlign=top;childLayout=stackLayout;horizontal=1;startSize=26;horizontalStack=0;resizeParent=1;resizeParentMax=0;resizeLast=0;collapsible=1;marginBottom=0;whiteSpace=wrap;html=1;" parent="1" vertex="1">
          <mxGeometry x="-480" y="380" width="320" height="148" as="geometry" />
        </mxCell>
        <mxCell id="RJdc7BDFOfBHNQxDKPzy-74" value="-&amp;nbsp;completeMUMLACGPPASettingsDirectoryPath: Path&lt;div&gt;-&amp;nbsp;completeMUMLACGPPASettingsFilePath: Path&lt;/div&gt;" style="text;strokeColor=none;fillColor=none;align=left;verticalAlign=top;spacingLeft=4;spacingRight=4;overflow=hidden;rotatable=0;points=[[0,0.5],[1,0.5]];portConstraint=eastwest;whiteSpace=wrap;html=1;" parent="RJdc7BDFOfBHNQxDKPzy-73" vertex="1">
          <mxGeometry y="26" width="320" height="44" as="geometry" />
        </mxCell>
        <mxCell id="RJdc7BDFOfBHNQxDKPzy-75" value="" style="line;strokeWidth=1;fillColor=none;align=left;verticalAlign=middle;spacingTop=-1;spacingLeft=3;spacingRight=3;rotatable=0;labelPosition=right;points=[];portConstraint=eastwest;strokeColor=inherit;" parent="RJdc7BDFOfBHNQxDKPzy-73" vertex="1">
          <mxGeometry y="70" width="320" height="8" as="geometry" />
        </mxCell>
        <mxCell id="RJdc7BDFOfBHNQxDKPzy-76" value="+ PipelineSettingsGenerator():&amp;nbsp;PipelineSettingsGenerator&lt;div&gt;+&amp;nbsp;getCompleteSettingsFilePath(): Path&lt;/div&gt;&lt;div&gt;+ generatePipelineConfigFile(): boolean&lt;br&gt;&lt;/div&gt;&lt;div&gt;[Cropped for better readability of the relevant functions.]&lt;/div&gt;" style="text;strokeColor=none;fillColor=none;align=left;verticalAlign=top;spacingLeft=4;spacingRight=4;overflow=hidden;rotatable=0;points=[[0,0.5],[1,0.5]];portConstraint=eastwest;whiteSpace=wrap;html=1;" parent="RJdc7BDFOfBHNQxDKPzy-73" vertex="1">
          <mxGeometry y="78" width="320" height="70" as="geometry" />
        </mxCell>
        <mxCell id="RJdc7BDFOfBHNQxDKPzy-77" value="Use" style="endArrow=open;endSize=12;dashed=1;html=1;rounded=0;" parent="1" source="RJdc7BDFOfBHNQxDKPzy-49" target="RJdc7BDFOfBHNQxDKPzy-73" edge="1">
          <mxGeometry x="0.2011" y="-25" width="160" relative="1" as="geometry">
            <mxPoint x="-260" y="360" as="sourcePoint" />
            <mxPoint x="-100" y="360" as="targetPoint" />
            <mxPoint as="offset" />
          </mxGeometry>
        </mxCell>
        <mxCell id="RJdc7BDFOfBHNQxDKPzy-78" value="Use" style="endArrow=open;endSize=12;dashed=1;html=1;rounded=0;" parent="1" source="OLEBrkIy9l8B6peo9fKU-3" target="RJdc7BDFOfBHNQxDKPzy-79" edge="1">
          <mxGeometry x="-0.02" y="16" width="160" relative="1" as="geometry">
            <mxPoint x="-1090" y="280" as="sourcePoint" />
            <mxPoint x="-490" y="310" as="targetPoint" />
            <mxPoint as="offset" />
          </mxGeometry>
        </mxCell>
        <mxCell id="RJdc7BDFOfBHNQxDKPzy-79" value="Every PipelineStep sub class in the package&lt;br&gt;de.ust.mumlacgppa.pipeline.parts.steps.mumlpostprocessingandarduinocli&lt;div&gt;gets accessed at its field&amp;nbsp;nameFlag and&lt;br&gt;generateDefaultOrExampleValues() function.&lt;/div&gt;" style="shape=note;size=20;whiteSpace=wrap;html=1;" parent="1" vertex="1">
          <mxGeometry x="-1000" y="400" width="400" height="80" as="geometry" />
        </mxCell>
        <mxCell id="RJdc7BDFOfBHNQxDKPzy-82" value="Focuses on the *Action classes and what is used by them." style="shape=note;size=20;whiteSpace=wrap;html=1;" parent="1" vertex="1">
          <mxGeometry x="-1040" y="-520" width="160" height="80" as="geometry" />
        </mxCell>
        <mxCell id="RJdc7BDFOfBHNQxDKPzy-83" value="Exceptions and the accesses&amp;nbsp;&lt;span style=&quot;background-color: initial;&quot;&gt;to&lt;/span&gt;&lt;div&gt;&lt;span style=&quot;background-color: initial;&quot;&gt;the project&lt;/span&gt;&lt;div&gt;ProjectFolderPathStoragePlugIn and the static variable projectFolderPath&amp;nbsp; in it&amp;nbsp;&lt;span style=&quot;background-color: initial;&quot;&gt;(almost every *Action class in this diagram is accessing it)&lt;/span&gt;&lt;span style=&quot;background-color: initial;&quot;&gt;&amp;nbsp;left out&amp;nbsp;&lt;/span&gt;&lt;span style=&quot;background-color: initial;&quot;&gt;to avoid cluttering.&lt;/span&gt;&lt;/div&gt;&lt;/div&gt;" style="shape=note;size=20;whiteSpace=wrap;html=1;" parent="1" vertex="1">
          <mxGeometry x="-840" y="-520" width="220" height="120" as="geometry" />
        </mxCell>
        <mxCell id="QogKebN4xCBcVfhZPnNA-5" value="GenerateSofdcarHalConfig_hppFileAction" style="swimlane;fontStyle=1;align=center;verticalAlign=top;childLayout=stackLayout;horizontal=1;startSize=26;horizontalStack=0;resizeParent=1;resizeParentMax=0;resizeLast=0;collapsible=1;marginBottom=0;whiteSpace=wrap;html=1;" parent="1" vertex="1">
          <mxGeometry x="-480" y="20" width="540" height="140" as="geometry" />
        </mxCell>
        <mxCell id="QogKebN4xCBcVfhZPnNA-6" value="- shell: Shell" style="text;strokeColor=none;fillColor=none;align=left;verticalAlign=top;spacingLeft=4;spacingRight=4;overflow=hidden;rotatable=0;points=[[0,0.5],[1,0.5]];portConstraint=eastwest;whiteSpace=wrap;html=1;" parent="QogKebN4xCBcVfhZPnNA-5" vertex="1">
          <mxGeometry y="26" width="540" height="26" as="geometry" />
        </mxCell>
        <mxCell id="QogKebN4xCBcVfhZPnNA-7" value="" style="line;strokeWidth=1;fillColor=none;align=left;verticalAlign=middle;spacingTop=-1;spacingLeft=3;spacingRight=3;rotatable=0;labelPosition=right;points=[];portConstraint=eastwest;strokeColor=inherit;" parent="QogKebN4xCBcVfhZPnNA-5" vertex="1">
          <mxGeometry y="52" width="540" height="8" as="geometry" />
        </mxCell>
        <mxCell id="QogKebN4xCBcVfhZPnNA-8" value="+ GenerateSofdcarHalConfig_hppFileAction(): GenerateSofdcarHalConfig_hppFileAction&lt;div&gt;+&amp;nbsp;setActivePart(IAction action, IWorkbenchPart targetPart): void&lt;/div&gt;&lt;div&gt;+&amp;nbsp;run(IAction action): void&lt;/div&gt;&lt;div&gt;+&amp;nbsp;selectionChanged(IAction action, ISelection selection): void&lt;/div&gt;" style="text;strokeColor=none;fillColor=none;align=left;verticalAlign=top;spacingLeft=4;spacingRight=4;overflow=hidden;rotatable=0;points=[[0,0.5],[1,0.5]];portConstraint=eastwest;whiteSpace=wrap;html=1;" parent="QogKebN4xCBcVfhZPnNA-5" vertex="1">
          <mxGeometry y="60" width="540" height="80" as="geometry" />
        </mxCell>
        <mxCell id="QogKebN4xCBcVfhZPnNA-11" value="SofdcarHalConfig_hppFileGenerator" style="swimlane;fontStyle=1;align=center;verticalAlign=top;childLayout=stackLayout;horizontal=1;startSize=26;horizontalStack=0;resizeParent=1;resizeParentMax=0;resizeLast=0;collapsible=1;marginBottom=0;whiteSpace=wrap;html=1;" parent="1" vertex="1">
          <mxGeometry x="-1000" y="10" width="440" height="120" as="geometry" />
        </mxCell>
        <mxCell id="QogKebN4xCBcVfhZPnNA-12" value="&amp;nbsp;" style="text;strokeColor=none;fillColor=none;align=left;verticalAlign=top;spacingLeft=4;spacingRight=4;overflow=hidden;rotatable=0;points=[[0,0.5],[1,0.5]];portConstraint=eastwest;whiteSpace=wrap;html=1;" parent="QogKebN4xCBcVfhZPnNA-11" vertex="1">
          <mxGeometry y="26" width="440" height="26" as="geometry" />
        </mxCell>
        <mxCell id="QogKebN4xCBcVfhZPnNA-13" value="" style="line;strokeWidth=1;fillColor=none;align=left;verticalAlign=middle;spacingTop=-1;spacingLeft=3;spacingRight=3;rotatable=0;labelPosition=right;points=[];portConstraint=eastwest;strokeColor=inherit;" parent="QogKebN4xCBcVfhZPnNA-11" vertex="1">
          <mxGeometry y="52" width="440" height="8" as="geometry" />
        </mxCell>
        <mxCell id="QogKebN4xCBcVfhZPnNA-14" value="+ SofdcarHalConfig_hppFileGenerator():&amp;nbsp;SofdcarHalConfig_hppFileGenerator&lt;div&gt;+&amp;nbsp;getCompleteSofdcarHalConfigFilePath(): Path&lt;/div&gt;&lt;div&gt;+ SofdcarHalConfig_hppFileGenerator(): boolean&lt;br&gt;&lt;/div&gt;" style="text;strokeColor=none;fillColor=none;align=left;verticalAlign=top;spacingLeft=4;spacingRight=4;overflow=hidden;rotatable=0;points=[[0,0.5],[1,0.5]];portConstraint=eastwest;whiteSpace=wrap;html=1;" parent="QogKebN4xCBcVfhZPnNA-11" vertex="1">
          <mxGeometry y="60" width="440" height="60" as="geometry" />
        </mxCell>
        <mxCell id="QogKebN4xCBcVfhZPnNA-15" value="Use" style="endArrow=open;endSize=12;dashed=1;html=1;rounded=0;" parent="1" source="QogKebN4xCBcVfhZPnNA-5" target="QogKebN4xCBcVfhZPnNA-11" edge="1">
          <mxGeometry x="-0.02" y="16" width="160" relative="1" as="geometry">
            <mxPoint x="-570" y="350" as="sourcePoint" />
            <mxPoint x="-550" y="88" as="targetPoint" />
            <mxPoint as="offset" />
          </mxGeometry>
        </mxCell>
        <mxCell id="QogKebN4xCBcVfhZPnNA-16" value="implements" style="endArrow=block;dashed=1;endFill=0;endSize=12;html=1;rounded=0;verticalAlign=middle;exitX=1;exitY=0;exitDx=0;exitDy=0;" parent="1" source="QogKebN4xCBcVfhZPnNA-5" target="RJdc7BDFOfBHNQxDKPzy-36" edge="1">
          <mxGeometry x="0.1986" y="-26" width="160" relative="1" as="geometry">
            <mxPoint x="70" y="30" as="sourcePoint" />
            <mxPoint x="150" y="25" as="targetPoint" />
            <mxPoint x="1" as="offset" />
          </mxGeometry>
        </mxCell>
        <mxCell id="OLEBrkIy9l8B6peo9fKU-3" value="StepsExamplesGenerator" style="swimlane;fontStyle=1;align=center;verticalAlign=top;childLayout=stackLayout;horizontal=1;startSize=26;horizontalStack=0;resizeParent=1;resizeParentMax=0;resizeLast=0;collapsible=1;marginBottom=0;whiteSpace=wrap;html=1;" parent="1" vertex="1">
          <mxGeometry x="-1090" y="200" width="569" height="160" as="geometry" />
        </mxCell>
        <mxCell id="OLEBrkIy9l8B6peo9fKU-4" value="-&amp;nbsp;completeSettingsDirectoryPath: Path&lt;div&gt;-&amp;nbsp;completeExamplessFilePath: Path&lt;/div&gt;" style="text;strokeColor=none;fillColor=none;align=left;verticalAlign=top;spacingLeft=4;spacingRight=4;overflow=hidden;rotatable=0;points=[[0,0.5],[1,0.5]];portConstraint=eastwest;whiteSpace=wrap;html=1;" parent="OLEBrkIy9l8B6peo9fKU-3" vertex="1">
          <mxGeometry y="26" width="569" height="44" as="geometry" />
        </mxCell>
        <mxCell id="OLEBrkIy9l8B6peo9fKU-5" value="" style="line;strokeWidth=1;fillColor=none;align=left;verticalAlign=middle;spacingTop=-1;spacingLeft=3;spacingRight=3;rotatable=0;labelPosition=right;points=[];portConstraint=eastwest;strokeColor=inherit;" parent="OLEBrkIy9l8B6peo9fKU-3" vertex="1">
          <mxGeometry y="70" width="569" height="8" as="geometry" />
        </mxCell>
        <mxCell id="OLEBrkIy9l8B6peo9fKU-6" value="&lt;div&gt;+&amp;nbsp;StepsExamplesGenerator():&amp;nbsp;StepsExamplesGenerator&lt;/div&gt;&lt;div&gt;-&amp;nbsp;exampleSegment(Yaml yaml, String name, Map&amp;lt;String, Map&amp;lt;String, String&amp;gt;&amp;gt; exampleSettings): String&lt;/div&gt;&lt;div&gt;+&amp;nbsp;generateExampleListFile(): boolean&lt;/div&gt;&lt;div&gt;+&amp;nbsp;getCompleteExamplesFilePath(): String&lt;/div&gt;" style="text;strokeColor=none;fillColor=none;align=left;verticalAlign=top;spacingLeft=4;spacingRight=4;overflow=hidden;rotatable=0;points=[[0,0.5],[1,0.5]];portConstraint=eastwest;whiteSpace=wrap;html=1;" parent="OLEBrkIy9l8B6peo9fKU-3" vertex="1">
          <mxGeometry y="78" width="569" height="82" as="geometry" />
        </mxCell>
        <mxCell id="pHkYTxULkhddENhPRaEk-3" value="Use" style="endArrow=open;endSize=12;dashed=1;html=1;rounded=0;" parent="1" source="RJdc7BDFOfBHNQxDKPzy-45" target="OLEBrkIy9l8B6peo9fKU-3" edge="1">
          <mxGeometry x="-0.02" y="16" width="160" relative="1" as="geometry">
            <mxPoint x="-470" y="91" as="sourcePoint" />
            <mxPoint x="-550" y="88" as="targetPoint" />
            <mxPoint as="offset" />
          </mxGeometry>
        </mxCell>
        <mxCell id="pHkYTxULkhddENhPRaEk-4" value="&lt;p style=&quot;margin:0px;margin-top:4px;text-align:center;&quot;&gt;&lt;i&gt;&amp;lt;&amp;lt;Interface&amp;gt;&amp;gt;&lt;/i&gt;&lt;br&gt;&lt;b&gt;Keywords&lt;/b&gt;&lt;br&gt;&lt;/p&gt;&lt;hr size=&quot;1&quot; style=&quot;border-style:solid;&quot;&gt;&lt;p style=&quot;margin:0px;margin-left:4px;&quot;&gt;&lt;span style=&quot;background-color: initial;&quot;&gt;+&amp;nbsp;&lt;/span&gt;&lt;span style=&quot;background-color: initial;&quot;&gt;directValueKeyword: String = &quot;direct&quot; {readOnly}&lt;/span&gt;&lt;/p&gt;&lt;p style=&quot;margin:0px;margin-left:4px;&quot;&gt;&lt;span style=&quot;background-color: initial;&quot;&gt;+ fromKeyword&lt;/span&gt;&lt;span style=&quot;background-color: initial;&quot;&gt;: String&lt;/span&gt;&lt;span style=&quot;background-color: initial;&quot;&gt;&amp;nbsp;= &quot;from&quot;&lt;/span&gt;&lt;span style=&quot;background-color: initial;&quot;&gt;&amp;nbsp;&lt;/span&gt;&lt;span style=&quot;background-color: initial;&quot;&gt;{readOnly}&lt;/span&gt;&lt;/p&gt;&lt;p style=&quot;margin:0px;margin-left:4px;&quot;&gt;&lt;span style=&quot;background-color: initial;&quot;&gt;+&amp;nbsp;&lt;/span&gt;&lt;span style=&quot;white-space: normal;&quot;&gt;notKeyword&lt;/span&gt;&lt;span style=&quot;background-color: initial;&quot;&gt;: String&lt;/span&gt;&lt;span style=&quot;background-color: initial;&quot;&gt;&amp;nbsp;= &quot;not&quot;&lt;/span&gt;&lt;span style=&quot;background-color: initial;&quot;&gt;&amp;nbsp;&lt;/span&gt;&lt;span style=&quot;background-color: initial;&quot;&gt;{readOnly}&lt;/span&gt;&lt;/p&gt;&lt;p style=&quot;margin:0px;margin-left:4px;&quot;&gt;&lt;span style=&quot;background-color: initial;&quot;&gt;+&lt;/span&gt;&lt;span style=&quot;background-color: initial;&quot;&gt;&amp;nbsp;&lt;/span&gt;&lt;span style=&quot;white-space: normal;&quot;&gt;inKeyword&lt;/span&gt;&lt;span style=&quot;background-color: initial;&quot;&gt;: String&lt;/span&gt;&lt;span style=&quot;background-color: initial;&quot;&gt;&amp;nbsp;= &quot;in&quot;&lt;/span&gt;&lt;span style=&quot;background-color: initial;&quot;&gt;&amp;nbsp;&lt;/span&gt;&lt;span style=&quot;background-color: initial;&quot;&gt;{readOnly}&lt;/span&gt;&lt;/p&gt;&lt;p style=&quot;margin:0px;margin-left:4px;&quot;&gt;&lt;span style=&quot;background-color: initial;&quot;&gt;+&lt;/span&gt;&lt;span style=&quot;background-color: initial;&quot;&gt;&amp;nbsp;&lt;/span&gt;&lt;span style=&quot;white-space: normal;&quot;&gt;outKeyword&lt;/span&gt;&lt;span style=&quot;background-color: initial;&quot;&gt;: String&lt;/span&gt;&lt;span style=&quot;background-color: initial;&quot;&gt;&amp;nbsp;= &quot;out&quot;&lt;/span&gt;&lt;span style=&quot;background-color: initial;&quot;&gt;&amp;nbsp;&lt;/span&gt;&lt;span style=&quot;background-color: initial;&quot;&gt;{readOnly}&lt;/span&gt;&lt;/p&gt;&lt;p style=&quot;margin:0px;margin-left:4px;&quot;&gt;&lt;span style=&quot;background-color: initial;&quot;&gt;+&lt;/span&gt;&lt;span style=&quot;background-color: initial;&quot;&gt;&amp;nbsp;all&lt;/span&gt;&lt;span style=&quot;background-color: initial;&quot;&gt;Keyword&lt;/span&gt;&lt;span style=&quot;background-color: initial;&quot;&gt;: String&lt;/span&gt;&lt;span style=&quot;background-color: initial;&quot;&gt;&amp;nbsp;= &quot;all&quot;&lt;/span&gt;&lt;span style=&quot;background-color: initial;&quot;&gt;&amp;nbsp;&lt;/span&gt;&lt;span style=&quot;background-color: initial;&quot;&gt;{readOnly}&lt;/span&gt;&lt;/p&gt;&lt;p style=&quot;margin:0px;margin-left:4px;&quot;&gt;&lt;span style=&quot;background-color: initial;&quot;&gt;&lt;br&gt;&lt;/span&gt;&lt;/p&gt;&lt;p style=&quot;margin:0px;margin-left:4px;&quot;&gt;&lt;span style=&quot;background-color: initial;&quot;&gt;+&lt;/span&gt;&lt;span style=&quot;background-color: initial;&quot;&gt;&amp;nbsp;&lt;/span&gt;&lt;span style=&quot;white-space: normal;&quot;&gt;variableDefsKeyword&lt;/span&gt;&lt;span style=&quot;background-color: initial;&quot;&gt;: String&lt;/span&gt;&lt;span style=&quot;background-color: initial;&quot;&gt;&amp;nbsp;= &quot;VariableDefs&quot;&lt;/span&gt;&lt;span style=&quot;background-color: initial;&quot;&gt;&amp;nbsp;&lt;/span&gt;&lt;span style=&quot;background-color: initial;&quot;&gt;{readOnly}&lt;/span&gt;&lt;/p&gt;&lt;p style=&quot;margin:0px;margin-left:4px;&quot;&gt;&lt;span style=&quot;background-color: initial;&quot;&gt;+&lt;/span&gt;&lt;span style=&quot;background-color: initial;&quot;&gt;&amp;nbsp;&lt;/span&gt;&lt;span style=&quot;background-color: initial;&quot;&gt;transformationAndCodeGenerationPreconfigurationsDefKeyword: String = &quot;TransformationAndCodeGenerationPreconfigurations&quot;&amp;nbsp;&lt;/span&gt;&lt;span style=&quot;background-color: initial;&quot;&gt;{readOnly}&lt;/span&gt;&lt;/p&gt;&lt;p style=&quot;margin:0px;margin-left:4px;&quot;&gt;&lt;span style=&quot;background-color: initial;&quot;&gt;+&amp;nbsp;&lt;/span&gt;&lt;span style=&quot;background-color: initial;&quot;&gt;postProcessingSequenceDefKeyword&lt;/span&gt;&lt;span style=&quot;background-color: initial;&quot;&gt;: String&lt;/span&gt;&lt;span style=&quot;background-color: initial;&quot;&gt;&amp;nbsp;= &quot;PostProcessingSequence&quot; {readOnly}&lt;/span&gt;&lt;/p&gt;&lt;p style=&quot;margin:0px;margin-left:4px;&quot;&gt;&lt;span style=&quot;background-color: initial;&quot;&gt;+&lt;/span&gt;&lt;span style=&quot;background-color: initial;&quot;&gt;&amp;nbsp;&lt;/span&gt;&lt;span style=&quot;white-space: normal;&quot;&gt;pipelineSequenceDefKeyword&lt;/span&gt;&lt;span style=&quot;background-color: initial;&quot;&gt;: String&lt;/span&gt;&lt;span style=&quot;background-color: initial;&quot;&gt;&amp;nbsp;= &quot;PipelineSequence&quot;&lt;/span&gt;&lt;span style=&quot;background-color: initial;&quot;&gt;&amp;nbsp;&lt;/span&gt;&lt;span style=&quot;background-color: initial;&quot;&gt;{readOnly}&lt;/span&gt;&lt;/p&gt;&lt;p style=&quot;margin:0px;margin-left:4px;&quot;&gt;&lt;span style=&quot;background-color: initial;&quot;&gt;&lt;br&gt;&lt;/span&gt;&lt;/p&gt;&lt;p style=&quot;margin:0px;margin-left:4px;&quot;&gt;&lt;span style=&quot;background-color: initial;&quot;&gt;+&lt;/span&gt;&lt;span style=&quot;background-color: initial;&quot;&gt;&amp;nbsp;&lt;/span&gt;variableDefKeyword&lt;span style=&quot;background-color: initial;&quot;&gt;: String&lt;/span&gt;&lt;span style=&quot;background-color: initial;&quot;&gt;&amp;nbsp;= &quot;VariableDef&quot;&lt;/span&gt;&lt;span style=&quot;background-color: initial;&quot;&gt;&amp;nbsp;&lt;/span&gt;&lt;span style=&quot;background-color: initial;&quot;&gt;{readOnly}&lt;/span&gt;&lt;/p&gt;&lt;p style=&quot;margin:0px;margin-left:4px;&quot;&gt;&lt;span style=&quot;background-color: initial;&quot;&gt;+&lt;/span&gt;&lt;span style=&quot;background-color: initial;&quot;&gt;&amp;nbsp;&lt;/span&gt;&lt;span style=&quot;white-space: normal;&quot;&gt;variableDefNameKeyword&lt;/span&gt;&lt;span style=&quot;background-color: initial;&quot;&gt;: String&lt;/span&gt;&lt;span style=&quot;background-color: initial;&quot;&gt;&amp;nbsp;= &quot;name&quot;&lt;/span&gt;&lt;span style=&quot;background-color: initial;&quot;&gt;&amp;nbsp;&lt;/span&gt;&lt;span style=&quot;background-color: initial;&quot;&gt;{readOnly}&lt;/span&gt;&lt;/p&gt;&lt;p style=&quot;margin:0px;margin-left:4px;&quot;&gt;&lt;span style=&quot;background-color: initial;&quot;&gt;+&lt;/span&gt;&lt;span style=&quot;background-color: initial;&quot;&gt;&amp;nbsp;&lt;/span&gt;&lt;span style=&quot;white-space: normal;&quot;&gt;variableDefTypeKeyword&lt;/span&gt;&lt;span style=&quot;background-color: initial;&quot;&gt;: String&lt;/span&gt;&lt;span style=&quot;background-color: initial;&quot;&gt;&amp;nbsp;= &quot;type&quot;&lt;/span&gt;&lt;span style=&quot;background-color: initial;&quot;&gt;&amp;nbsp;&lt;/span&gt;&lt;span style=&quot;background-color: initial;&quot;&gt;{readOnly}&lt;/span&gt;&lt;/p&gt;&lt;p style=&quot;margin:0px;margin-left:4px;&quot;&gt;&lt;span style=&quot;background-color: initial;&quot;&gt;&lt;/span&gt;&lt;/p&gt;&lt;p style=&quot;margin:0px;margin-left:4px;&quot;&gt;&lt;span style=&quot;background-color: initial;&quot;&gt;+&lt;/span&gt;&lt;span style=&quot;background-color: initial;&quot;&gt;&amp;nbsp;&lt;/span&gt;&lt;span style=&quot;white-space: normal;&quot;&gt;variableDefValueKeyword&lt;/span&gt;&lt;span style=&quot;background-color: initial;&quot;&gt;: String&lt;/span&gt;&lt;span style=&quot;background-color: initial;&quot;&gt;&amp;nbsp;= &quot;value&quot;&lt;/span&gt;&lt;span style=&quot;background-color: initial;&quot;&gt;&amp;nbsp;&lt;/span&gt;&lt;span style=&quot;background-color: initial;&quot;&gt;{readOnly}&lt;/span&gt;&lt;/p&gt;" style="verticalAlign=top;align=left;overflow=fill;html=1;whiteSpace=wrap;" parent="1" vertex="1">
          <mxGeometry x="-760" y="650" width="800" height="280" as="geometry" />
        </mxCell>
        <mxCell id="pHkYTxULkhddENhPRaEk-6" value="&lt;p style=&quot;margin:0px;margin-top:4px;text-align:center;&quot;&gt;&lt;i&gt;&amp;lt;&amp;lt;Interface&amp;gt;&amp;gt;&lt;/i&gt;&lt;br&gt;&lt;b&gt;VariableTypes&lt;/b&gt;&lt;br&gt;&lt;/p&gt;&lt;hr size=&quot;1&quot; style=&quot;border-style:solid;&quot;&gt;&lt;p style=&quot;margin:0px;margin-left:4px;&quot;&gt;&lt;span style=&quot;background-color: initial;&quot;&gt;+&amp;nbsp;&lt;/span&gt;AnyType&lt;span style=&quot;background-color: initial;&quot;&gt;: String&lt;/span&gt;&lt;span style=&quot;background-color: initial;&quot;&gt;&amp;nbsp;= &quot;Any&quot;&lt;/span&gt;&lt;span style=&quot;background-color: initial;&quot;&gt;&amp;nbsp;&lt;/span&gt;&lt;span style=&quot;background-color: initial;&quot;&gt;{readOnly}&lt;/span&gt;&lt;/p&gt;&lt;p style=&quot;margin:0px;margin-left:4px;&quot;&gt;&lt;span style=&quot;white-space: pre; white-space: normal;&quot;&gt;&#x9;&lt;/span&gt;&lt;/p&gt;&lt;p style=&quot;margin:0px;margin-left:4px;&quot;&gt;&lt;span style=&quot;background-color: initial;&quot;&gt;+&amp;nbsp;&lt;/span&gt;&lt;span style=&quot;white-space: normal;&quot;&gt;NumberType&lt;/span&gt;&lt;span style=&quot;background-color: initial;&quot;&gt;: String&lt;/span&gt;&lt;span style=&quot;background-color: initial;&quot;&gt;&amp;nbsp;= &quot;Number&quot;&lt;/span&gt;&lt;span style=&quot;background-color: initial;&quot;&gt;&amp;nbsp;&lt;/span&gt;&lt;span style=&quot;background-color: initial;&quot;&gt;{readOnly}&lt;/span&gt;&lt;/p&gt;&lt;p style=&quot;margin:0px;margin-left:4px;&quot;&gt;&lt;span style=&quot;background-color: initial;&quot;&gt;+&amp;nbsp;&lt;/span&gt;&lt;span style=&quot;white-space: normal;&quot;&gt;StringType&lt;/span&gt;&lt;span style=&quot;background-color: initial;&quot;&gt;: String&lt;/span&gt;&lt;span style=&quot;background-color: initial;&quot;&gt;&amp;nbsp;= &quot;String&quot;&lt;/span&gt;&lt;span style=&quot;background-color: initial;&quot;&gt;&amp;nbsp;&lt;/span&gt;&lt;span style=&quot;background-color: initial;&quot;&gt;{readOnly}&lt;/span&gt;&lt;/p&gt;&lt;p style=&quot;margin:0px;margin-left:4px;&quot;&gt;&lt;span style=&quot;background-color: initial;&quot;&gt;+&amp;nbsp;&lt;/span&gt;&lt;span style=&quot;white-space: normal;&quot;&gt;BooleanType&lt;/span&gt;&lt;span style=&quot;background-color: initial;&quot;&gt;: String&lt;/span&gt;&lt;span style=&quot;background-color: initial;&quot;&gt;&amp;nbsp;= &quot;Boolean&quot;&lt;/span&gt;&lt;span style=&quot;background-color: initial;&quot;&gt;&amp;nbsp;&lt;/span&gt;&lt;span style=&quot;background-color: initial;&quot;&gt;{readOnly}&lt;/span&gt;&lt;/p&gt;&lt;p style=&quot;margin:0px;margin-left:4px;&quot;&gt;&lt;span style=&quot;white-space: pre; white-space: normal;&quot;&gt;&#x9;&lt;/span&gt;&lt;/p&gt;&lt;p style=&quot;margin:0px;margin-left:4px;&quot;&gt;&lt;span style=&quot;background-color: initial;&quot;&gt;+&amp;nbsp;&lt;/span&gt;&lt;span style=&quot;background-color: initial;&quot;&gt;FolderPathType&lt;/span&gt;&lt;span style=&quot;background-color: initial;&quot;&gt;: String&lt;/span&gt;&lt;span style=&quot;background-color: initial;&quot;&gt;&amp;nbsp;= &quot;FolderPath&quot;&lt;/span&gt;&lt;span style=&quot;background-color: initial;&quot;&gt;&amp;nbsp;&lt;/span&gt;&lt;span style=&quot;background-color: initial;&quot;&gt;{readOnly}&lt;/span&gt;&lt;br&gt;&lt;/p&gt;&lt;p style=&quot;margin:0px;margin-left:4px;&quot;&gt;&lt;span style=&quot;background-color: initial;&quot;&gt;+&amp;nbsp;&lt;/span&gt;&lt;span style=&quot;white-space: normal;&quot;&gt;FilePathType&lt;/span&gt;&lt;span style=&quot;background-color: initial;&quot;&gt;: String&lt;/span&gt;&lt;span style=&quot;background-color: initial;&quot;&gt;&amp;nbsp;= &quot;FilePath&quot;&lt;/span&gt;&lt;span style=&quot;background-color: initial;&quot;&gt;&amp;nbsp;&lt;/span&gt;&lt;span style=&quot;background-color: initial;&quot;&gt;{readOnly}&lt;/span&gt;&lt;/p&gt;&lt;p style=&quot;margin:0px;margin-left:4px;&quot;&gt;&lt;span style=&quot;white-space: pre; white-space: normal;&quot;&gt;&#x9;&lt;/span&gt;&lt;/p&gt;&lt;p style=&quot;margin:0px;margin-left:4px;&quot;&gt;&lt;span style=&quot;background-color: initial;&quot;&gt;+&amp;nbsp;&lt;/span&gt;&lt;span style=&quot;white-space: normal;&quot;&gt;BoardSerialNumberType&lt;/span&gt;&lt;span style=&quot;background-color: initial;&quot;&gt;: String&lt;/span&gt;&lt;span style=&quot;background-color: initial;&quot;&gt;&amp;nbsp;= &quot;BoardSerialNumber&quot;&lt;/span&gt;&lt;span style=&quot;background-color: initial;&quot;&gt;&amp;nbsp;&lt;/span&gt;&lt;span style=&quot;background-color: initial;&quot;&gt;{readOnly}&lt;/span&gt;&lt;/p&gt;&lt;p style=&quot;margin:0px;margin-left:4px;&quot;&gt;&lt;span style=&quot;background-color: initial;&quot;&gt;+&amp;nbsp;&lt;/span&gt;&lt;span style=&quot;white-space: normal;&quot;&gt;BoardIdentifierFQBNType&lt;/span&gt;&lt;span style=&quot;background-color: initial;&quot;&gt;: String&lt;/span&gt;&lt;span style=&quot;background-color: initial;&quot;&gt;&amp;nbsp;= &quot;BoardIdentifierFQBN&quot;&lt;/span&gt;&lt;span style=&quot;background-color: initial;&quot;&gt;&amp;nbsp;&lt;/span&gt;&lt;span style=&quot;background-color: initial;&quot;&gt;{readOnly}&lt;/span&gt;&lt;/p&gt;&lt;p style=&quot;margin:0px;margin-left:4px;&quot;&gt;&lt;span style=&quot;background-color: initial;&quot;&gt;+&amp;nbsp;&lt;/span&gt;&lt;span style=&quot;white-space: normal;&quot;&gt;ConnectionPortType&lt;/span&gt;&lt;span style=&quot;background-color: initial;&quot;&gt;: String&lt;/span&gt;&lt;span style=&quot;background-color: initial;&quot;&gt;&amp;nbsp;= &quot;ConnectionPort&quot;&lt;/span&gt;&lt;span style=&quot;background-color: initial;&quot;&gt;&amp;nbsp;&lt;/span&gt;&lt;span style=&quot;background-color: initial;&quot;&gt;{readOnly}&lt;/span&gt;&lt;/p&gt;&lt;p style=&quot;margin:0px;margin-left:4px;&quot;&gt;&lt;span style=&quot;white-space: pre; white-space: normal;&quot;&gt;&#x9;&lt;/span&gt;&lt;/p&gt;&lt;p style=&quot;margin:0px;margin-left:4px;&quot;&gt;&lt;span style=&quot;background-color: initial;&quot;&gt;+&amp;nbsp;&lt;/span&gt;&lt;span style=&quot;white-space: normal;&quot;&gt;WLANNameType&lt;/span&gt;&lt;span style=&quot;background-color: initial;&quot;&gt;: String&lt;/span&gt;&lt;span style=&quot;background-color: initial;&quot;&gt;&amp;nbsp;= &quot;WLANName&quot;&lt;/span&gt;&lt;span style=&quot;background-color: initial;&quot;&gt;&amp;nbsp;&lt;/span&gt;&lt;span style=&quot;background-color: initial;&quot;&gt;{readOnly}&lt;/span&gt;&lt;/p&gt;&lt;p style=&quot;margin:0px;margin-left:4px;&quot;&gt;&lt;span style=&quot;background-color: initial;&quot;&gt;+&amp;nbsp;&lt;/span&gt;&lt;span style=&quot;white-space: normal;&quot;&gt;WLANPasswordType&lt;/span&gt;&lt;span style=&quot;background-color: initial;&quot;&gt;: String&lt;/span&gt;&lt;span style=&quot;background-color: initial;&quot;&gt;&amp;nbsp;= &quot;WLANPassword&quot;&lt;/span&gt;&lt;span style=&quot;background-color: initial;&quot;&gt;&amp;nbsp;&lt;/span&gt;&lt;span style=&quot;background-color: initial;&quot;&gt;{readOnly}&lt;/span&gt;&lt;/p&gt;&lt;p style=&quot;margin:0px;margin-left:4px;&quot;&gt;&lt;span style=&quot;background-color: initial;&quot;&gt;+&amp;nbsp;&lt;/span&gt;&lt;span style=&quot;white-space: normal;&quot;&gt;ServerIPAddressType&lt;/span&gt;&lt;span style=&quot;background-color: initial;&quot;&gt;: String&lt;/span&gt;&lt;span style=&quot;background-color: initial;&quot;&gt;&amp;nbsp;= &quot;ServerIPAddress&quot;&lt;/span&gt;&lt;span style=&quot;background-color: initial;&quot;&gt;&amp;nbsp;&lt;/span&gt;&lt;span style=&quot;background-color: initial;&quot;&gt;{readOnly}&lt;/span&gt;&lt;/p&gt;&lt;p style=&quot;margin:0px;margin-left:4px;&quot;&gt;&lt;span style=&quot;background-color: initial;&quot;&gt;+&amp;nbsp;&lt;/span&gt;&lt;span style=&quot;white-space: normal;&quot;&gt;ServerPortType&lt;/span&gt;&lt;span style=&quot;background-color: initial;&quot;&gt;: String&lt;/span&gt;&lt;span style=&quot;background-color: initial;&quot;&gt;&amp;nbsp;= &quot;ServerPort&quot;&lt;/span&gt;&lt;span style=&quot;background-color: initial;&quot;&gt;&amp;nbsp;&lt;/span&gt;&lt;span style=&quot;background-color: initial;&quot;&gt;{readOnly}&lt;/span&gt;&lt;/p&gt;" style="verticalAlign=top;align=left;overflow=fill;html=1;whiteSpace=wrap;" parent="1" vertex="1">
          <mxGeometry x="90" y="560" width="390" height="260" as="geometry" />
        </mxCell>
        <mxCell id="pHkYTxULkhddENhPRaEk-7" value="&lt;p style=&quot;margin:0px;margin-top:4px;text-align:center;&quot;&gt;&lt;i&gt;&amp;lt;&amp;lt;Interface&amp;gt;&amp;gt;&lt;/i&gt;&lt;br&gt;&lt;span style=&quot;background-color: initial; text-align: left;&quot;&gt;&lt;b&gt;PipelineSettingsDirectoryAndFilePaths&lt;/b&gt;&lt;/span&gt;&lt;br&gt;&lt;/p&gt;&lt;hr size=&quot;1&quot; style=&quot;border-style:solid;&quot;&gt;&lt;p style=&quot;margin:0px;margin-left:4px;&quot;&gt;&lt;span style=&quot;background-color: initial;&quot;&gt;+&amp;nbsp;&lt;/span&gt;&lt;span style=&quot;background-color: initial;&quot;&gt;PIPELINE_SETTINGS_DIRECTORY_FOLDER&lt;/span&gt;&lt;span style=&quot;background-color: initial;&quot;&gt;: String&lt;/span&gt;&lt;span style=&quot;background-color: initial;&quot;&gt;&amp;nbsp;= &quot;automatisationConfig&quot;&lt;/span&gt;&lt;span style=&quot;background-color: initial;&quot;&gt;&amp;nbsp;&lt;/span&gt;&lt;span style=&quot;background-color: initial;&quot;&gt;{readOnly}&lt;/span&gt;&lt;/p&gt;&lt;p style=&quot;margin:0px;margin-left:4px;&quot;&gt;&lt;span style=&quot;white-space: normal;&quot;&gt;+ PIPELINE_SETTINGS_FILE_NAME&lt;/span&gt;&lt;span style=&quot;background-color: initial;&quot;&gt;: String&lt;/span&gt;&lt;span style=&quot;background-color: initial;&quot;&gt;&amp;nbsp;= &quot;pipelineSettings.yaml&quot;&lt;/span&gt;&lt;span style=&quot;background-color: initial;&quot;&gt;&amp;nbsp;&lt;/span&gt;&lt;span style=&quot;background-color: initial;&quot;&gt;{readOnly}&lt;/span&gt;&lt;/p&gt;&lt;p style=&quot;margin:0px;margin-left:4px;&quot;&gt;&lt;span style=&quot;white-space: normal;&quot;&gt;+ STEP_EXAMPLES_FILE_NAME&lt;/span&gt;&lt;span style=&quot;background-color: initial;&quot;&gt;: String&lt;/span&gt;&lt;span style=&quot;background-color: initial;&quot;&gt;&amp;nbsp;= &quot;Each_pipeline_step_by_an_example.txt&quot;&lt;/span&gt;&lt;span style=&quot;background-color: initial;&quot;&gt;&amp;nbsp;&lt;/span&gt;&lt;span style=&quot;background-color: initial;&quot;&gt;{readOnly}&lt;/span&gt;&lt;/p&gt;&lt;p style=&quot;margin:0px;margin-left:4px;&quot;&gt;&lt;span style=&quot;white-space: normal;&quot;&gt;+ SOFDCAR_HAL_LOCAL_CONFIG_FILE_NAME&lt;/span&gt;&lt;span style=&quot;background-color: initial;&quot;&gt;: String&lt;/span&gt;&lt;span style=&quot;background-color: initial;&quot;&gt;&amp;nbsp;= &quot;LocalSofdcarHalConfig.hpp&quot;&lt;/span&gt;&lt;span style=&quot;background-color: initial;&quot;&gt;&amp;nbsp;&lt;/span&gt;&lt;span style=&quot;background-color: initial;&quot;&gt;{readOnly}&lt;/span&gt;&lt;/p&gt;" style="verticalAlign=top;align=left;overflow=fill;html=1;whiteSpace=wrap;" parent="1" vertex="1">
          <mxGeometry x="-1090" y="510" width="550" height="110" as="geometry" />
        </mxCell>
        <mxCell id="pHkYTxULkhddENhPRaEk-8" value="implements" style="endArrow=block;dashed=1;endFill=0;endSize=12;html=1;rounded=0;verticalAlign=middle;entryX=0;entryY=0;entryDx=0;entryDy=0;exitX=1.004;exitY=0.992;exitDx=0;exitDy=0;exitPerimeter=0;" parent="1" source="RJdc7BDFOfBHNQxDKPzy-76" target="pHkYTxULkhddENhPRaEk-6" edge="1">
          <mxGeometry x="-0.8287" y="-20" width="160" relative="1" as="geometry">
            <mxPoint x="-140" y="550" as="sourcePoint" />
            <mxPoint x="276" y="190" as="targetPoint" />
            <mxPoint as="offset" />
          </mxGeometry>
        </mxCell>
        <mxCell id="pHkYTxULkhddENhPRaEk-9" value="implements" style="endArrow=block;dashed=1;endFill=0;endSize=12;html=1;rounded=0;verticalAlign=middle;" parent="1" source="RJdc7BDFOfBHNQxDKPzy-73" target="pHkYTxULkhddENhPRaEk-4" edge="1">
          <mxGeometry x="-0.3287" y="41" width="160" relative="1" as="geometry">
            <mxPoint x="-249" y="538" as="sourcePoint" />
            <mxPoint x="-141" y="670" as="targetPoint" />
            <mxPoint as="offset" />
          </mxGeometry>
        </mxCell>
        <mxCell id="pHkYTxULkhddENhPRaEk-10" value="implements" style="endArrow=block;dashed=1;endFill=0;endSize=12;html=1;rounded=0;verticalAlign=middle;" parent="1" edge="1">
          <mxGeometry x="-0.7333" y="40" width="160" relative="1" as="geometry">
            <mxPoint x="-1080" y="360" as="sourcePoint" />
            <mxPoint x="-1080" y="510" as="targetPoint" />
            <mxPoint as="offset" />
          </mxGeometry>
        </mxCell>
        <mxCell id="pHkYTxULkhddENhPRaEk-11" value="implements" style="endArrow=block;dashed=1;endFill=0;endSize=12;html=1;rounded=0;verticalAlign=middle;" parent="1" edge="1">
          <mxGeometry x="0.5469" y="37" width="160" relative="1" as="geometry">
            <mxPoint x="-521" y="360" as="sourcePoint" />
            <mxPoint x="-521" y="650" as="targetPoint" />
            <mxPoint as="offset" />
          </mxGeometry>
        </mxCell>
      </root>
    </mxGraphModel>
  </diagram>
</mxfile>
